<svg width="33" height="33" viewBox="0 0 33 33" fill="none" xmlns="http://www.w3.org/2000/svg">
<path d="M10.6773 8.06329C10.1217 8.06329 9.6495 8.25774 9.26061 8.64663C8.87172 9.03552 8.67728 9.50774 8.67728 10.0633C8.67728 10.6188 8.87172 11.0911 9.26061 11.48C9.6495 11.8688 10.1217 12.0633 10.6773 12.0633C11.2328 12.0633 11.7051 11.8688 12.0939 11.48C12.4828 11.0911 12.6773 10.6188 12.6773 10.0633C12.6773 9.50774 12.4828 9.03552 12.0939 8.64663C11.7051 8.25774 11.2328 8.06329 10.6773 8.06329ZM10.6773 21.3966C10.1217 21.3966 9.6495 21.5911 9.26061 21.98C8.87172 22.3689 8.67728 22.8411 8.67728 23.3966C8.67728 23.9522 8.87172 24.4244 9.26061 24.8133C9.6495 25.2022 10.1217 25.3966 10.6773 25.3966C11.2328 25.3966 11.7051 25.2022 12.0939 24.8133C12.4828 24.4244 12.6773 23.9522 12.6773 23.3966C12.6773 22.8411 12.4828 22.3689 12.0939 21.98C11.7051 21.5911 11.2328 21.3966 10.6773 21.3966ZM6.01061 4.06329H27.3439C27.7217 4.06329 28.0384 4.19107 28.2939 4.44663C28.5495 4.70218 28.6773 5.01885 28.6773 5.39663V14.73C28.6773 15.1077 28.5495 15.4244 28.2939 15.68C28.0384 15.9355 27.7217 16.0633 27.3439 16.0633H6.01061C5.63283 16.0633 5.31617 15.9355 5.06061 15.68C4.80505 15.4244 4.67728 15.1077 4.67728 14.73V5.39663C4.67728 5.01885 4.80505 4.70218 5.06061 4.44663C5.31617 4.19107 5.63283 4.06329 6.01061 4.06329ZM7.34394 6.72996V13.3966H26.0106V6.72996H7.34394ZM6.01061 17.3966H27.3439C27.7217 17.3966 28.0384 17.5244 28.2939 17.78C28.5495 18.0355 28.6773 18.3522 28.6773 18.73V28.0633C28.6773 28.4411 28.5495 28.7577 28.2939 29.0133C28.0384 29.2689 27.7217 29.3966 27.3439 29.3966H6.01061C5.63283 29.3966 5.31617 29.2689 5.06061 29.0133C4.80505 28.7577 4.67728 28.4411 4.67728 28.0633V18.73C4.67728 18.3522 4.80505 18.0355 5.06061 17.78C5.31617 17.5244 5.63283 17.3966 6.01061 17.3966ZM7.34394 20.0633V26.73H26.0106V20.0633H7.34394Z" fill="black"/>
</svg>
